<?xml version="1.0" encoding="utf-8"?>
<!-- Generator: Adobe Illustrator 26.5.0, SVG Export Plug-In . SVG Version: 6.00 Build 0)  -->
<svg version="1.1" id="Layer_1" xmlns="http://www.w3.org/2000/svg" xmlns:xlink="http://www.w3.org/1999/xlink" x="0px" y="0px"
	 viewBox="0 0 1024 1024" style="enable-background:new 0 0 1024 1024;" xml:space="preserve">
<style type="text/css">
	.st0{fill:#0066B3;}
	.st1{fill:#FFFFFF;}
</style>
<rect class="st0" width="1024" height="1024"/>
<path class="st1" d="M313.1,704.8c40.9,22,102.1,45.6,166.6,45.6c69.1,0,105.3-31.4,105.3-78.6c0-45.6-31.4-70.7-111.6-102.1
	c-110-42.4-182.3-108.4-182.3-212.2c0-122.6,94.3-216.9,251.4-216.9c75.4,0,130.4,17.3,169.7,36.1l-33,132
	c-26.7-14.1-73.9-34.6-138.3-34.6s-95.9,31.4-95.9,69.1c0,45.6,37.7,66,122.6,102.1C684,492.7,739,558.7,739,660.8
	c0,121-84.9,223.2-267.2,223.2c-75.4,0-150.9-22-187-44L313.1,704.8z"/>
</svg>
