<?xml version="1.0" encoding="utf-8"?>
<!-- Generator: Adobe Illustrator 26.5.0, SVG Export Plug-In . SVG Version: 6.00 Build 0)  -->
<svg version="1.1" id="Layer_1" xmlns="http://www.w3.org/2000/svg" xmlns:xlink="http://www.w3.org/1999/xlink" x="0px" y="0px"
	 viewBox="0 0 373.1 96.4" style="enable-background:new 0 0 373.1 96.4;" xml:space="preserve">
<style type="text/css">
	.st0{fill:#0066B3;}
	.st1{fill:#B4BBBF;}
	.st2{fill:none;stroke:#0066B3;stroke-width:1.5;stroke-miterlimit:10;}
</style>
<g>
	<polygon class="st0" points="17,14.3 5.7,14.3 5.7,5.6 38.1,5.6 38.1,14.3 26.6,14.3 26.6,51.4 17,51.4 	"/>
	<polygon class="st0" points="46.6,16.5 46.6,29.9 58.5,29.9 58.5,16.5 65.8,16.5 65.8,51.4 58.5,51.4 58.5,36.8 46.6,36.8 
		46.6,51.4 39.3,51.4 39.3,16.5 	"/>
	<g>
		<path class="st0" d="M99.3,33.6c0,11.4-6.4,18.4-15.8,18.4c-9.5,0-15.1-7.8-15.1-17.8c0-10.5,6.1-18.3,15.6-18.3
			C93.9,16,99.3,24,99.3,33.6 M76.1,34.1c0,6.8,3,11.7,7.8,11.7c4.9,0,7.7-5.1,7.7-11.9c0-6.3-2.8-11.7-7.8-11.7
			C79,22.2,76.1,27.3,76.1,34.1"/>
		<path class="st0" d="M131.2,38.1c-0.1-4.2-0.3-9.3-0.3-14.3h-0.1c-1,4.5-2.3,9.4-3.6,13.5l-3.9,13.6h-5.7l-3.4-13.5
			c-1-4.1-2.1-9.1-2.9-13.6h-0.1c-0.2,4.7-0.3,10.1-0.6,14.5l-0.6,13.3h-6.7l2-34.9h9.7l3.1,11.7c1,4,2,8.4,2.7,12.5h0.1
			c0.9-4,2-8.7,3-12.5l3.4-11.6h9.5l1.8,34.9h-7.1L131.2,38.1z"/>
		<path class="st0" d="M151.7,42.5l-2.3,9h-7.5l9.8-34.9h9.5l10,34.9h-7.8l-2.5-9H151.7z M159.9,36.6l-2-7.4
			c-0.6-2.1-1.1-4.7-1.6-6.7h-0.1c-0.5,2.1-1,4.7-1.5,6.7l-1.9,7.4H159.9z"/>
		<path class="st0" d="M175.8,43.3c2,1.1,5,2.2,8.1,2.2c3.3,0,5.1-1.5,5.1-3.8c0-2.2-1.5-3.4-5.4-4.9c-5.3-2-8.8-5.2-8.8-10.3
			c0-6,4.6-10.5,12.2-10.5c3.6,0,6.3,0.8,8.2,1.8l-1.6,6.4c-1.3-0.7-3.6-1.7-6.7-1.7c-3.1,0-4.7,1.6-4.7,3.4c0,2.2,1.8,3.2,6,4.9
			c5.7,2.3,8.3,5.5,8.3,10.4c0,5.9-4.1,10.8-13,10.8c-3.7,0-7.3-1-9.1-2.1L175.8,43.3z"/>
		<path class="st0" d="M215.2,40.8c2.6,1.4,6.5,2.9,10.6,2.9c4.4,0,6.7-2,6.7-5c0-2.9-2-4.5-7.1-6.5c-7-2.7-11.6-6.9-11.6-13.5
			c0-7.8,6-13.8,16-13.8c4.8,0,8.3,1.1,10.8,2.3l-2.1,8.4c-1.7-0.9-4.7-2.2-8.8-2.2s-6.1,2-6.1,4.4c0,2.9,2.4,4.2,7.8,6.5
			c7.4,3,10.9,7.2,10.9,13.7c0,7.7-5.4,14.2-17,14.2c-4.8,0-9.6-1.4-11.9-2.8L215.2,40.8z"/>
		<rect x="247.7" y="16.5" class="st0" width="7.3" height="34.9"/>
		<path class="st0" d="M261.3,51.4V16.5h8.5l6.7,12.8c1.9,3.7,3.8,8,5.2,12h0.1c-0.5-4.6-0.6-9.3-0.6-14.6V16.5h6.7v34.9h-7.6
			L273.4,38c-1.9-3.7-4-8.2-5.6-12.3l-0.1,0.1c0.2,4.6,0.3,9.5,0.3,15.2v10.5H261.3z"/>
		<path class="st0" d="M294.1,51.4V16.5h8.5l6.7,12.8c1.9,3.7,3.8,8,5.2,12h0.1c-0.5-4.6-0.6-9.3-0.6-14.6V16.5h6.7v34.9h-7.6
			L306.2,38c-1.9-3.7-4-8.2-5.6-12.3l-0.1,0.1c0.2,4.6,0.3,9.5,0.3,15.2v10.5H294.1z"/>
		<rect x="327" y="16.5" class="st0" width="7.3" height="34.9"/>
		<path class="st0" d="M367.4,49.8c-2.2,0.8-6.5,2-10.7,2c-5.9,0-10.1-1.6-13.1-4.7c-3-3-4.6-7.6-4.5-12.7
			c0-11.6,7.8-18.2,18.3-18.2c4.1,0,7.3,0.9,8.9,1.7l-1.5,6.3c-1.8-0.8-4-1.5-7.5-1.5c-6.1,0-10.6,3.7-10.6,11.3
			c0,7.2,4.1,11.4,10.1,11.4c1.7,0,3-0.2,3.6-0.5v-7.3h-5v-6.2h12V49.8z"/>
		<rect x="19" y="60.7" class="st1" width="6.3" height="30.3"/>
		<rect x="19" y="60.7" class="st2" width="6.3" height="30.3"/>
		<path class="st1" d="M54,79.4c-0.1-3.6-0.2-8.1-0.2-12.5h-0.1c-0.9,3.9-2,8.2-3.1,11.7l-3.4,11.8h-4.9l-2.9-11.7
			c-0.9-3.6-1.8-7.9-2.5-11.8h-0.1c-0.2,4.1-0.3,8.8-0.5,12.6L35.8,91h-5.8l1.8-30.3h8.3l2.7,10.1c0.9,3.5,1.7,7.3,2.3,10.8h0.1
			c0.8-3.5,1.7-7.5,2.6-10.9l2.9-10.1H59L60.5,91h-6.1L54,79.4z"/>
		<path class="st2" d="M54,79.4c-0.1-3.6-0.2-8.1-0.2-12.5h-0.1c-0.9,3.9-2,8.2-3.1,11.7l-3.4,11.8h-4.9l-2.9-11.7
			c-0.9-3.6-1.8-7.9-2.5-11.8h-0.1c-0.2,4.1-0.3,8.8-0.5,12.6L35.8,91h-5.8l1.8-30.3h8.3l2.7,10.1c0.9,3.5,1.7,7.3,2.3,10.8h0.1
			c0.8-3.5,1.7-7.5,2.6-10.9l2.9-10.1H59L60.5,91h-6.1L54,79.4z"/>
		<path class="st1" d="M88.7,79.4c-0.1-3.6-0.2-8.1-0.2-12.5h-0.1c-0.9,3.9-2,8.2-3.1,11.7l-3.4,11.8H77L74,78.8
			c-0.9-3.6-1.8-7.9-2.5-11.8h-0.1c-0.2,4.1-0.3,8.8-0.5,12.6L70.5,91h-5.8l1.8-30.3h8.3l2.7,10.1c0.9,3.5,1.7,7.3,2.3,10.8h0.1
			c0.8-3.5,1.7-7.5,2.6-10.9l2.9-10.1h8.2L95.2,91h-6.1L88.7,79.4z"/>
		<path class="st2" d="M88.7,79.4c-0.1-3.6-0.2-8.1-0.2-12.5h-0.1c-0.9,3.9-2,8.2-3.1,11.7l-3.4,11.8H77L74,78.8
			c-0.9-3.6-1.8-7.9-2.5-11.8h-0.1c-0.2,4.1-0.3,8.8-0.5,12.6L70.5,91h-5.8l1.8-30.3h8.3l2.7,10.1c0.9,3.5,1.7,7.3,2.3,10.8h0.1
			c0.8-3.5,1.7-7.5,2.6-10.9l2.9-10.1h8.2L95.2,91h-6.1L88.7,79.4z"/>
		<path class="st1" d="M125.2,75.5c0,9.9-5.5,16-13.6,16c-8.2,0-13-6.8-13-15.4c0-9.1,5.3-15.9,13.4-15.9
			C120.6,60.2,125.2,67.2,125.2,75.5 M105.3,75.9c0,5.9,2.5,10.1,6.7,10.1c4.2,0,6.6-4.4,6.6-10.3c0-5.4-2.4-10.1-6.7-10.1
			C107.7,65.6,105.3,70.1,105.3,75.9"/>
		<path class="st2" d="M125.2,75.5c0,9.9-5.5,16-13.6,16c-8.2,0-13-6.8-13-15.4c0-9.1,5.3-15.9,13.4-15.9
			C120.6,60.2,125.2,67.2,125.2,75.5z M105.3,75.9c0,5.9,2.5,10.1,6.7,10.1c4.2,0,6.6-4.4,6.6-10.3c0-5.4-2.4-10.1-6.7-10.1
			C107.7,65.6,105.3,70.1,105.3,75.9z"/>
		<path class="st1" d="M129.3,61.1c1.6-0.4,5-0.6,8.1-0.6c3.8,0,6.1,0.4,8.2,1.7c1.9,1.1,3.3,3.2,3.3,5.9c0,2.7-1.4,5.2-4.5,6.5v0.1
			c3.2,0.9,5.5,3.6,5.5,7.5c0,2.7-1.1,4.9-2.9,6.4c-2,1.8-5.4,2.7-10.9,2.7c-3.1,0-5.4-0.2-6.8-0.4V61.1z M135.5,72.7h2
			c3.3,0,5-1.5,5-3.7c0-2.3-1.6-3.5-4.4-3.5c-1.4,0-2.1,0.1-2.7,0.2V72.7z M135.5,86.2c0.6,0.1,1.4,0.1,2.4,0.1
			c2.8,0,5.3-1.2,5.3-4.4c0-3.1-2.5-4.3-5.6-4.3h-2.1V86.2z"/>
		<path class="st2" d="M129.3,61.1c1.6-0.4,5-0.6,8.1-0.6c3.8,0,6.1,0.4,8.2,1.7c1.9,1.1,3.3,3.2,3.3,5.9c0,2.7-1.4,5.2-4.5,6.5v0.1
			c3.2,0.9,5.5,3.6,5.5,7.5c0,2.7-1.1,4.9-2.9,6.4c-2,1.8-5.4,2.7-10.9,2.7c-3.1,0-5.4-0.2-6.8-0.4V61.1z M135.5,72.7h2
			c3.3,0,5-1.5,5-3.7c0-2.3-1.6-3.5-4.4-3.5c-1.4,0-2.1,0.1-2.7,0.2V72.7z M135.5,86.2c0.6,0.1,1.4,0.1,2.4,0.1
			c2.8,0,5.3-1.2,5.3-4.4c0-3.1-2.5-4.3-5.6-4.3h-2.1V86.2z"/>
		<rect x="154" y="60.7" class="st1" width="6.3" height="30.3"/>
		<rect x="154" y="60.7" class="st2" width="6.3" height="30.3"/>
		<polygon class="st1" points="165.7,60.7 172,60.7 172,85.3 183,85.3 183,91 165.7,91 		"/>
		<polygon class="st2" points="165.7,60.7 172,60.7 172,85.3 183,85.3 183,91 165.7,91 		"/>
		<rect x="186.6" y="60.7" class="st1" width="6.3" height="30.3"/>
		<rect x="186.6" y="60.7" class="st2" width="6.3" height="30.3"/>
		<polygon class="st1" points="214.7,78.2 204.6,78.2 204.6,85.4 215.9,85.4 215.9,91 198.3,91 198.3,60.7 215.3,60.7 215.3,66.3 
			204.6,66.3 204.6,72.6 214.7,72.6 		"/>
		<polygon class="st2" points="214.7,78.2 204.6,78.2 204.6,85.4 215.9,85.4 215.9,91 198.3,91 198.3,60.7 215.3,60.7 215.3,66.3 
			204.6,66.3 204.6,72.6 214.7,72.6 		"/>
		<path class="st1" d="M220.2,91V60.7h7.3l5.7,11.1c1.6,3.2,3.3,7,4.5,10.4h0.1c-0.4-4-0.5-8.1-0.5-12.6v-8.9h5.7V91h-6.6l-5.9-11.7
			c-1.6-3.2-3.4-7.2-4.8-10.7l-0.1,0c0.2,4,0.2,8.3,0.2,13.2V91H220.2z"/>
		<path class="st2" d="M220.2,91V60.7h7.3l5.7,11.1c1.6,3.2,3.3,7,4.5,10.4h0.1c-0.4-4-0.5-8.1-0.5-12.6v-8.9h5.7V91h-6.6l-5.9-11.7
			c-1.6-3.2-3.4-7.2-4.8-10.7l-0.1,0c0.2,4,0.2,8.3,0.2,13.2V91H220.2z"/>
		<path class="st1" d="M279.8,89.6c-1.9,0.7-5.6,1.7-9.2,1.7c-5,0-8.7-1.4-11.2-4.1c-2.5-2.6-3.9-6.6-3.9-11
			c0-10.1,6.7-15.8,15.8-15.8c3.6,0,6.3,0.8,7.7,1.5l-1.3,5.5c-1.5-0.7-3.4-1.3-6.4-1.3c-5.2,0-9.1,3.2-9.1,9.8
			c0,6.3,3.6,9.9,8.7,9.9c1.4,0,2.6-0.2,3.1-0.4V79h-4.3v-5.4h10.3V89.6z"/>
		<path class="st2" d="M279.8,89.6c-1.9,0.7-5.6,1.7-9.2,1.7c-5,0-8.7-1.4-11.2-4.1c-2.5-2.6-3.9-6.6-3.9-11
			c0-10.1,6.7-15.8,15.8-15.8c3.6,0,6.3,0.8,7.7,1.5l-1.3,5.5c-1.5-0.7-3.4-1.3-6.4-1.3c-5.2,0-9.1,3.2-9.1,9.8
			c0,6.3,3.6,9.9,8.7,9.9c1.4,0,2.6-0.2,3.1-0.4V79h-4.3v-5.4h10.3V89.6z"/>
		<path class="st1" d="M308,79.4c-0.1-3.6-0.2-8.1-0.2-12.5h-0.1c-0.9,3.9-2,8.2-3.1,11.7l-3.4,11.8h-4.9l-2.9-11.7
			c-0.9-3.6-1.8-7.9-2.5-11.8h-0.1c-0.2,4.1-0.3,8.8-0.5,12.6L289.8,91H284l1.8-30.3h8.3l2.7,10.1c0.9,3.5,1.7,7.3,2.3,10.8h0.1
			c0.8-3.5,1.7-7.5,2.6-10.9l2.9-10.1h8.1l1.5,30.3h-6.1L308,79.4z"/>
		<path class="st2" d="M308,79.4c-0.1-3.6-0.2-8.1-0.2-12.5h-0.1c-0.9,3.9-2,8.2-3.1,11.7l-3.4,11.8h-4.9l-2.9-11.7
			c-0.9-3.6-1.8-7.9-2.5-11.8h-0.1c-0.2,4.1-0.3,8.8-0.5,12.6L289.8,91H284l1.8-30.3h8.3l2.7,10.1c0.9,3.5,1.7,7.3,2.3,10.8h0.1
			c0.8-3.5,1.7-7.5,2.6-10.9l2.9-10.1h8.1l1.5,30.3h-6.1L308,79.4z"/>
		<path class="st1" d="M319.3,61.1c1.6-0.4,5-0.6,8.1-0.6c3.8,0,6.1,0.4,8.1,1.7c1.9,1.1,3.3,3.2,3.3,5.9c0,2.7-1.4,5.2-4.5,6.5v0.1
			c3.2,0.9,5.5,3.6,5.5,7.5c0,2.7-1.1,4.9-2.9,6.4c-2,1.8-5.4,2.7-10.9,2.7c-3.1,0-5.4-0.2-6.8-0.4V61.1z M325.5,72.7h2
			c3.3,0,5-1.5,5-3.7c0-2.3-1.6-3.5-4.4-3.5c-1.4,0-2.1,0.1-2.7,0.2V72.7z M325.5,86.2c0.6,0.1,1.4,0.1,2.4,0.1
			c2.8,0,5.3-1.2,5.3-4.4c0-3.1-2.5-4.3-5.6-4.3h-2.1V86.2z"/>
		<path class="st2" d="M319.3,61.1c1.6-0.4,5-0.6,8.1-0.6c3.8,0,6.1,0.4,8.1,1.7c1.9,1.1,3.3,3.2,3.3,5.9c0,2.7-1.4,5.2-4.5,6.5v0.1
			c3.2,0.9,5.5,3.6,5.5,7.5c0,2.7-1.1,4.9-2.9,6.4c-2,1.8-5.4,2.7-10.9,2.7c-3.1,0-5.4-0.2-6.8-0.4V61.1z M325.5,72.7h2
			c3.3,0,5-1.5,5-3.7c0-2.3-1.6-3.5-4.4-3.5c-1.4,0-2.1,0.1-2.7,0.2V72.7z M325.5,86.2c0.6,0.1,1.4,0.1,2.4,0.1
			c2.8,0,5.3-1.2,5.3-4.4c0-3.1-2.5-4.3-5.6-4.3h-2.1V86.2z"/>
		<polygon class="st1" points="350.3,60.7 350.3,72.3 360.6,72.3 360.6,60.7 366.8,60.7 366.8,91 360.6,91 360.6,78.3 350.3,78.3 
			350.3,91 344,91 344,60.7 		"/>
		<polygon class="st2" points="350.3,60.7 350.3,72.3 360.6,72.3 360.6,60.7 366.8,60.7 366.8,91 360.6,91 360.6,78.3 350.3,78.3 
			350.3,91 344,91 344,60.7 		"/>
	</g>
</g>
</svg>
